# Blender 4.1.1
# www.blender.org
mtllib bumper.mtl
o Cube
v 1.000000 2.000000 -1.000000
v 1.000000 -0.000000 -1.000000
v 1.000000 2.000000 1.000000
v 1.000000 0.000000 1.000000
v -1.000000 2.000000 -1.000000
v -1.000000 -0.000000 -1.000000
v -1.000000 2.000000 1.000000
v -1.000000 0.000000 1.000000
vn -0.0000 1.0000 -0.0000
vn -0.0000 -0.0000 1.0000
vn -1.0000 -0.0000 -0.0000
vn -0.0000 -1.0000 -0.0000
vn 1.0000 -0.0000 -0.0000
vn -0.0000 -0.0000 -1.0000
vt 0.001340 1.001536
vt -1.007322 1.992798
vt -0.998621 0.992837
vt -0.000023 0.000176
vt -0.993986 -1.005823
vt 0.005995 -0.999806
vt 0.998499 1.001659
vt 0.001497 -0.001330
vt 1.001491 0.001663
vt -1.001492 0.995673
vt -0.998499 -0.004322
vt 0.004490 -1.001325
vt 1.004484 -0.998332
vt 0.995506 2.001654
vt -0.001497 0.998666
vt -0.007360 2.001499
vt -1.000004 -0.005842
vt -0.001496 0.998666
vt -0.004489 1.998662
s 0
usemtl Material.001
f 5/1/1 3/2/1 1/3/1
f 3/4/2 8/5/2 4/6/2
f 7/7/3 6/8/3 8/9/3
f 2/8/4 8/10/4 6/11/4
f 1/9/5 4/12/5 2/13/5
f 5/14/6 2/15/6 6/7/6
f 5/1/1 7/16/1 3/2/1
f 3/4/2 7/17/2 8/5/2
f 7/7/3 5/18/3 6/8/3
f 2/8/4 4/15/4 8/10/4
f 1/9/5 3/8/5 4/12/5
f 5/14/6 1/19/6 2/15/6
